<svg width="64" height="64" viewBox="0 0 64 64" fill="none" xmlns="http://www.w3.org/2000/svg">
  <rect width="64" height="64" rx="18" fill="#F7F8FC"></rect>
  <circle cx="32" cy="32" r="24" fill="#D7F72F" stroke="#111111" stroke-width="4"></circle>
  <path d="M22 40.2C24.1 42.5 27.6 44 32.1 44C37.8 44 42 41.1 42 36.5C42 32.2 38.9 30.4 33.1 29.2L30.6 28.7C27.8 28.1 26.7 27.4 26.7 25.9C26.7 24.3 28.2 23.2 31 23.2C34 23.2 36.4 24.2 38.3 26.1L41.3 21.9C38.8 19.5 35.5 18.3 31.3 18.3C25.7 18.3 21.4 21.2 21.4 26.1C21.4 30.4 24.4 32.4 29.8 33.5L32.4 34C35.5 34.7 36.6 35.4 36.6 36.9C36.6 38.4 35.1 39.4 32.2 39.4C29.1 39.4 26.5 38.2 24.5 36.2L22 40.2Z" fill="#111111"></path>
</svg>